<?xml version="1.0" standalone="no"?>
<!DOCTYPE svg PUBLIC "-//W3C//DTD SVG 20010904//EN"
 "http://www.w3.org/TR/2001/REC-SVG-20010904/DTD/svg10.dtd">
<svg version="1.0" xmlns="http://www.w3.org/2000/svg"
 width="1024.000000pt" height="1024.000000pt" viewBox="0 0 1024.000000 1024.000000"
 preserveAspectRatio="xMidYMid meet">
<metadata>
Created by potrace 1.14, written by Peter Selinger 2001-2017
</metadata>
<g transform="translate(0.000000,1024.000000) scale(0.100000,-0.100000)"
fill="#000000" stroke="none">
<path d="M1496 6558 c-27 -62 -1087 -2334 -1217 -2612 -49 -104 -92 -200 -95
-213 l-6 -23 4263 2 4264 3 14 30 c21 43 209 442 233 495 30 65 139 300 186
400 22 47 164 353 317 680 153 327 347 744 432 925 85 182 157 338 160 348 5
16 -202 17 -4261 17 l-4266 0 -24 -52z m610 -863 c69 -149 149 -319 176 -380
28 -60 54 -113 57 -118 4 -4 88 166 186 378 99 212 184 384 189 382 8 -3 55
-99 172 -353 23 -49 155 -332 294 -629 139 -297 256 -550 261 -562 l9 -23
-233 0 -232 0 -155 330 c-84 181 -156 327 -159 324 -3 -2 -75 -156 -161 -340
-86 -185 -160 -336 -165 -337 -8 -2 -57 97 -245 501 -46 100 -87 179 -90 176
-3 -3 -73 -150 -155 -327 l-150 -322 -234 -3 c-219 -2 -233 -1 -228 15 3 10
156 340 339 733 184 393 347 742 361 774 15 32 29 57 32 55 2 -3 61 -126 131
-274z m2303 249 c295 -73 534 -319 596 -614 21 -101 19 -257 -5 -356 -70 -293
-290 -516 -585 -595 -112 -30 -289 -30 -399 0 -282 75 -506 299 -582 581 -28
101 -26 312 4 413 91 315 343 536 667 587 78 12 222 4 304 -16z m2231 19 c0
-5 -41 -97 -92 -205 l-91 -198 -258 0 c-296 0 -346 -9 -441 -80 -109 -83 -164
-204 -156 -345 7 -102 42 -180 112 -251 160 -159 410 -160 566 -2 52 52 107
149 95 167 -4 7 -80 11 -216 11 -115 0 -209 2 -209 4 0 1 29 64 65 140 l65
136 354 0 355 0 8 -37 c15 -73 7 -253 -16 -338 -79 -293 -297 -510 -591 -586
-103 -27 -277 -27 -381 0 -242 62 -436 222 -539 445 -96 207 -101 442 -14 648
108 256 343 441 622 488 60 10 762 12 762 3z m1345 -23 c280 -72 496 -285 577
-567 32 -112 32 -314 0 -426 -82 -289 -305 -502 -598 -574 -101 -24 -276 -21
-379 6 -364 97 -605 408 -605 781 0 221 71 397 224 559 201 211 496 294 781
221z"/>
<path d="M4100 5541 c-162 -52 -268 -188 -278 -356 -11 -206 126 -380 329
-415 171 -30 343 59 421 218 28 57 34 79 36 154 5 102 -12 167 -64 243 -31 47
-99 107 -154 135 -79 41 -200 50 -290 21z"/>
<path d="M7659 5537 c-121 -41 -216 -137 -254 -255 -12 -38 -16 -78 -13 -140
2 -75 8 -97 36 -154 37 -76 114 -153 188 -187 194 -92 433 -4 529 194 26 54
29 70 29 165 1 93 -2 111 -26 162 -88 189 -297 280 -489 215z"/>
</g>
</svg>
